<svg width="80" height="80" viewBox="0 0 80 80" fill="none" xmlns="http://www.w3.org/2000/svg">
<g clip-path="url(#clip0)">
<path d="M41.08 58.49C42.781 58.49 44.16 57.111 44.16 55.41C44.16 53.7089 42.781 52.33 41.08 52.33C39.379 52.33 38 53.7089 38 55.41C38 57.111 39.379 58.49 41.08 58.49Z" fill="#D8262C"/>
<path d="M50.7401 57.2799C51.7729 57.2799 52.6101 56.4427 52.6101 55.4099C52.6101 54.3771 51.7729 53.5399 50.7401 53.5399C49.7073 53.5399 48.8701 54.3771 48.8701 55.4099C48.8701 56.4427 49.7073 57.2799 50.7401 57.2799Z" fill="#D8262C"/>
<path d="M45.8501 60.02C46.5184 60.02 47.0601 59.4782 47.0601 58.81C47.0601 58.1417 46.5184 57.6 45.8501 57.6C45.1819 57.6 44.6401 58.1417 44.6401 58.81C44.6401 59.4782 45.1819 60.02 45.8501 60.02Z" fill="#D8262C"/>
<path d="M45.8501 52.79C46.5184 52.79 47.0601 52.2483 47.0601 51.58C47.0601 50.9117 46.5184 50.37 45.8501 50.37C45.1819 50.37 44.6401 50.9117 44.6401 51.58C44.6401 52.2483 45.1819 52.79 45.8501 52.79Z" fill="#D8262C"/>
<path d="M31.2401 57.2799C32.2729 57.2799 33.1101 56.4427 33.1101 55.4099C33.1101 54.3771 32.2729 53.5399 31.2401 53.5399C30.2073 53.5399 29.3701 54.3771 29.3701 55.4099C29.3701 56.4427 30.2073 57.2799 31.2401 57.2799Z" fill="#D8262C"/>
<path d="M36.1399 60.02C36.8082 60.02 37.3499 59.4782 37.3499 58.81C37.3499 58.1417 36.8082 57.6 36.1399 57.6C35.4717 57.6 34.9299 58.1417 34.9299 58.81C34.9299 59.4782 35.4717 60.02 36.1399 60.02Z" fill="#D8262C"/>
<path d="M36.1399 52.79C36.8082 52.79 37.3499 52.2483 37.3499 51.58C37.3499 50.9117 36.8082 50.37 36.1399 50.37C35.4717 50.37 34.9299 50.9117 34.9299 51.58C34.9299 52.2483 35.4717 52.79 36.1399 52.79Z" fill="#D8262C"/>
<path fill-rule="evenodd" clip-rule="evenodd" d="M40.99 65.1399C36.74 65.2199 33.38 63.7499 31.27 61.4199C31.18 61.4199 31.1 61.43 31.01 61.43C27.69 61.43 25 58.7399 25 55.4199C25 52.0999 27.69 49.41 31.01 49.41C31.14 49.41 31.26 49.4099 31.39 49.4199C33.45 47.2099 36.96 45.77 41 45.7C45.03 45.77 48.55 47.2199 50.61 49.4199C50.73 49.4099 50.86 49.41 50.99 49.41C54.31 49.41 57 52.0999 57 55.4199C57 58.7399 54.31 61.43 50.99 61.43C50.9 61.43 50.82 61.4299 50.73 61.4199C48.6 63.7499 45.25 65.2099 40.99 65.1399Z" stroke="#D8262C" stroke-width="4" stroke-miterlimit="10" stroke-linecap="round"/>
<path d="M57.7002 54.46H73.9902" stroke="#D8262C" stroke-width="4" stroke-miterlimit="10" stroke-linecap="round"/>
<path d="M56.3398 58.8099L61.9898 64.4599H72.9898" stroke="#D8262C" stroke-width="4" stroke-miterlimit="10" stroke-linecap="round"/>
<path d="M49.3501 62.6699L56.9901 73.4599H64.9901" stroke="#D8262C" stroke-width="4" stroke-miterlimit="10" stroke-linecap="round"/>
<path d="M56.9902 53.46L72.4902 37.96V25.46" stroke="#D8262C" stroke-width="4" stroke-miterlimit="10" stroke-linecap="round"/>
<path d="M69.11 22.46C69.06 22.68 69.04 22.91 69.04 23.14C69.04 24.97 70.53 26.46 72.36 26.46C74.19 26.46 75.68 24.97 75.68 23.14C75.68 22.91 75.65 22.68 75.61 22.46H69.11Z" fill="#D8262C"/>
<path d="M76.9902 51.2199C76.7702 51.1699 76.5402 51.1499 76.3102 51.1499C74.4802 51.1499 72.9902 52.6399 72.9902 54.4699C72.9902 56.2999 74.4802 57.7899 76.3102 57.7899C76.5402 57.7899 76.7702 57.7599 76.9902 57.7199V51.2199Z" fill="#D8262C"/>
<path d="M74.9902 61.2199C74.7702 61.1699 74.5402 61.1499 74.3102 61.1499C72.4802 61.1499 70.9902 62.6399 70.9902 64.4699C70.9902 66.2999 72.4802 67.7899 74.3102 67.7899C74.5402 67.7899 74.7702 67.7599 74.9902 67.7199V61.2199Z" fill="#D8262C"/>
<path d="M66.9902 70.2199C66.7702 70.1699 66.5402 70.1499 66.3102 70.1499C64.4802 70.1499 62.9902 71.6399 62.9902 73.4699C62.9902 75.2999 64.4802 76.7899 66.3102 76.7899C66.5402 76.7899 66.7702 76.7599 66.9902 76.7199V70.2199Z" fill="#D8262C"/>
<path d="M24.82 54.46H7" stroke="#D8262C" stroke-width="4" stroke-miterlimit="10" stroke-linecap="round"/>
<path d="M25 58.46L19 64.46H8" stroke="#D8262C" stroke-width="4" stroke-miterlimit="10" stroke-linecap="round"/>
<path d="M32.64 62.6699L25 73.4599H17" stroke="#D8262C" stroke-width="4" stroke-miterlimit="10" stroke-linecap="round"/>
<path d="M25 53.46L9.5 37.96V25.46" stroke="#D8262C" stroke-width="4" stroke-miterlimit="10" stroke-linecap="round"/>
<path d="M12.8901 22.46C12.9401 22.68 12.9601 22.91 12.9601 23.14C12.9601 24.97 11.4701 26.46 9.64007 26.46C7.81007 26.46 6.32007 24.97 6.32007 23.14C6.32007 22.91 6.35007 22.68 6.39007 22.46H12.8901Z" fill="#D8262C"/>
<path d="M4 51.2199C4.22 51.1699 4.45 51.1499 4.68 51.1499C6.51 51.1499 8 52.6399 8 54.4699C8 56.2999 6.51 57.7899 4.68 57.7899C4.45 57.7899 4.22 57.7599 4 57.7199V51.2199Z" fill="#D8262C"/>
<path d="M6 61.2199C6.22 61.1699 6.45 61.1499 6.68 61.1499C8.51 61.1499 10 62.6399 10 64.4699C10 66.2999 8.51 67.7899 6.68 67.7899C6.45 67.7899 6.22 67.7599 6 67.7199V61.2199Z" fill="#D8262C"/>
<path d="M15 70.2199C15.22 70.1699 15.45 70.1499 15.68 70.1499C17.51 70.1499 19 71.6399 19 73.4699C19 75.2999 17.51 76.7899 15.68 76.7899C15.45 76.7899 15.22 76.7599 15 76.7199V70.2199Z" fill="#D8262C"/>
<path d="M22.7699 51.23C21.4599 47.78 20.6399 44.06 20.6399 40.62C20.6399 30.24 27.1199 24.8 33.1999 24.8C37.1499 24.8 40.2199 27.08 42.2699 27.08C44.0299 27.08 47.3099 24.66 51.5699 24.66C58.8999 24.66 61.7899 29.88 61.7899 29.88C61.7899 29.88 56.1499 32.76 56.1499 39.76C56.1499 44.7 58.8999 47.61 60.9499 49.1" stroke="#D8262C" stroke-width="4" stroke-miterlimit="10" stroke-linecap="round"/>
<path fill-rule="evenodd" clip-rule="evenodd" d="M44.8934 11.3182C48.5523 7.56205 52.9974 8.01733 52.9974 8.01733C52.9974 8.01733 53.2154 11.948 49.6266 15.3171C45.7887 18.9214 42.013 17.8515 42.013 17.8515C42.013 17.8515 41.6394 14.6569 44.8934 11.3182Z" stroke="#D8262C" stroke-width="4" stroke-miterlimit="10" stroke-linecap="round"/>
<path d="M48.3199 39.56C49.6785 39.56 50.7799 38.4586 50.7799 37.1C50.7799 35.7414 49.6785 34.64 48.3199 34.64C46.9612 34.64 45.8599 35.7414 45.8599 37.1C45.8599 38.4586 46.9612 39.56 48.3199 39.56Z" fill="#D8262C"/>
<path d="M36.1199 39.56C37.4785 39.56 38.5799 38.4586 38.5799 37.1C38.5799 35.7414 37.4785 34.64 36.1199 34.64C34.7613 34.64 33.6599 35.7414 33.6599 37.1C33.6599 38.4586 34.7613 39.56 36.1199 39.56Z" fill="#D8262C"/>
</g>
<defs>
<clipPath id="clip0">
<rect width="72.99" height="72.78" fill="white" transform="translate(4 4)"/>
</clipPath>
</defs>
</svg>
